<svg width="288" height="337" viewBox="0 0 288 337" fill="none" xmlns="http://www.w3.org/2000/svg">
<path d="M278.781 268.708C278.69 268.638 278.58 268.6 278.481 268.545C291.886 250.009 285.596 231.887 274.138 222.741C266.662 216.774 257.102 215.028 249.71 216.183C247.009 209.181 240.723 201.747 231.835 198.234C218.212 192.849 199.427 196.445 190.132 217.362C190.034 217.304 189.947 217.227 189.841 217.183C181.73 213.863 165.473 215.756 157.569 229.182C145.903 248.998 156.311 263.364 155.534 276.607C154.158 300.082 164.862 314.504 186.021 326.373L186.455 326.625C207.279 339.077 225.077 341.168 244.649 328.235C255.69 320.939 273.292 322.8 284.562 302.754C292.197 289.172 285.701 274.098 278.782 268.709L278.781 268.708Z" fill="#FA8AC0"/>
<path d="M186.489 264.395C194.451 262.314 198.831 252.755 196.271 243.046C193.712 233.336 185.181 227.153 177.218 229.234C169.255 231.316 164.875 240.874 167.435 250.584C169.995 260.293 178.526 266.477 186.489 264.395Z" fill="white"/>
<path d="M216.672 245.574C224.759 247.164 232.854 240.471 234.753 230.625C236.652 220.779 231.636 211.509 223.549 209.918C215.462 208.328 207.366 215.021 205.468 224.867C203.569 234.713 208.585 243.984 216.672 245.574Z" fill="white"/>
<path d="M261.152 304.896C270.812 302.266 276.871 293.68 274.686 285.72C272.501 277.759 262.899 273.438 253.239 276.068C243.58 278.698 237.52 287.283 239.705 295.244C241.89 303.205 251.492 307.526 261.152 304.896Z" fill="white"/>
<path d="M264.334 258.965C271.883 252.392 273.611 242.01 268.195 235.778C262.779 229.545 252.27 229.821 244.722 236.394C237.174 242.968 235.445 253.349 240.861 259.581C246.277 265.814 256.786 265.538 264.334 258.965Z" fill="white"/>
<path d="M234.782 302.955C236.123 295.388 232.328 291.712 232.194 281.73C232.111 275.549 237.522 262.006 226.916 255.796C216.254 249.683 207.27 261.158 201.894 264.176C193.212 269.05 188.142 267.59 182.281 272.54C179.062 275.259 178.353 278.923 178.414 282.101C178.518 287.59 184.014 294.113 193.165 296.185C197.672 297.206 201.321 299.127 201.827 299.4C202.317 299.704 205.799 301.915 208.933 305.321C215.297 312.236 223.673 313.75 228.464 311.097C231.238 309.56 234.045 307.112 234.782 302.955Z" fill="white"/>
<path d="M16 169.5C16 139.133 28.0633 110.009 49.5362 88.5363C71.0091 67.0634 100.133 55 130.5 55C160.867 55 189.991 67.0633 211.464 88.5361C232.937 110.009 245 139.132 245 169.5L167.008 169.5C167.008 159.818 163.161 150.532 156.315 143.685C149.468 136.839 140.182 132.992 130.5 132.992C120.818 132.992 111.532 136.839 104.685 143.685C97.8387 150.532 93.9924 159.818 93.9924 169.5H16Z" fill="#1CCD83"/>
</svg>
