<svg width="212" height="64" viewBox="0 0 212 64" fill="none" xmlns="http://www.w3.org/2000/svg">
<path d="M8.20718 22.5113C8.20718 12.6016 15.3422 6.19336 26.2428 6.19336C35.624 6.19336 42.9571 12.6677 43.2875 21.2561H32.9153C32.5189 17.6886 29.7442 15.4424 25.7143 15.4424C21.0898 15.4424 18.4472 17.4243 18.4472 20.9918C18.4472 23.7665 19.9667 25.4181 23.336 26.4091L30.2728 28.4571C37.4738 30.6372 40.9091 34.6672 40.9091 41.0755C40.9091 50.5887 33.7081 56.8649 22.6753 56.8649C12.0389 56.8649 5.16821 51.1173 4.83789 41.8022H15.21C15.4082 45.4357 18.3811 47.6158 23.1378 47.6158C27.8944 47.6158 30.7352 45.5678 30.7352 42.1325C30.7352 39.6881 29.6121 38.4989 26.5071 37.574L19.3721 35.526C12.2371 33.478 8.20718 28.7874 8.20718 22.5113Z" fill="#FF7037"/>
<path d="M55.0274 17.6886C52.2526 17.6886 50.2707 15.6406 50.2707 12.9319C50.2707 9.49658 53.3757 6.39155 56.8772 6.39155C59.6519 6.39155 61.6338 8.43955 61.6338 11.1482C61.6338 14.5175 58.4627 17.6886 55.0274 17.6886ZM44.1267 56.006L49.3458 22.9738H59.1894L53.9703 56.006H44.1267Z" fill="#FF7037"/>
<path d="M77.5337 56.006H67.3597V31.43H61.0836V22.9738H67.3597V12.7338H77.5337V22.9738H83.8098V31.43H77.5337V56.006Z" fill="white"/>
<path d="M103.018 56.006H92.8436V31.43H86.5675V22.9738H92.8436V12.7338H103.018V22.9738H109.294V31.43H103.018V56.006Z" fill="white"/>
<path d="M128.87 56.8649C118.895 56.8649 111.76 49.5978 111.76 39.4238C111.76 29.1178 118.697 21.9167 128.672 21.9167C139.044 21.9167 145.519 28.7214 145.519 39.4899V42.0664L121.537 42.1985C122.132 46.5588 124.576 48.6068 129.069 48.6068C132.9 48.6068 135.609 47.2195 136.336 44.8411H145.651C144.462 52.1743 137.921 56.8649 128.87 56.8649ZM128.738 30.1748C124.708 30.1748 122.462 31.9585 121.669 35.9224H135.411C135.411 32.421 132.834 30.1748 128.738 30.1748Z" fill="white"/>
<path d="M174.27 22.9738V32.5531H171.033C165.219 32.5531 161.717 35.1296 161.717 41.67V56.006H151.544V23.0398H161.123L161.651 27.9286C163.039 24.6914 165.946 22.5113 170.372 22.5113C171.561 22.5113 172.882 22.6434 174.27 22.9738Z" fill="white"/>
<path d="M193.742 6.19336L197.325 12.6796L204.503 11.5091L201.793 18.4268L207.161 23.4535L200.199 25.5934L199.714 33.0321L193.742 28.7829L187.769 33.0321L187.285 25.5934L180.322 23.4535L185.69 18.4268L182.98 11.5091L190.158 12.6796L193.742 6.19336Z" fill="#1CCD83"/>
</svg>
