<svg width="132" height="40" viewBox="0 0 132 40" fill="none" xmlns="http://www.w3.org/2000/svg">
<path d="M4.68588 14.0698C4.68588 7.87626 9.14524 3.87109 15.9581 3.87109C21.8214 3.87109 26.4046 7.91754 26.611 13.2853H20.1285C19.8807 11.0556 18.1465 9.65174 15.6278 9.65174C12.7375 9.65174 11.0859 10.8904 11.0859 13.1201C11.0859 14.8543 12.0356 15.8866 14.1414 16.5059L18.4769 17.7859C22.9775 19.1485 25.1246 21.6672 25.1246 25.6724C25.1246 31.6182 20.624 35.5408 13.7285 35.5408C7.08072 35.5408 2.78653 31.9485 2.58008 26.1266H9.06266C9.18653 28.3975 11.0446 29.7601 14.0175 29.7601C16.9904 29.7601 18.7659 28.4801 18.7659 26.333C18.7659 24.8053 18.0639 24.0621 16.1233 23.484L11.6639 22.204C7.20459 20.924 4.68588 17.9924 4.68588 14.0698Z" fill="#FF7037"/>
<path d="M33.9485 11.0556C32.2143 11.0556 30.9756 9.77561 30.9756 8.08271C30.9756 5.93561 32.9162 3.99496 35.1046 3.99496C36.8388 3.99496 38.0775 5.27496 38.0775 6.96787C38.0775 9.07367 36.0956 11.0556 33.9485 11.0556ZM27.1356 35.004L30.3975 14.3588H36.5498L33.2878 35.004H27.1356Z" fill="#FF7037"/>
<path d="M48.0149 35.004H41.6562V19.644H37.7336V14.3588H41.6562V7.95883H48.0149V14.3588H51.9375V19.644H48.0149V35.004Z" fill="black"/>
<path d="M63.9423 35.004H57.5836V19.644H53.661V14.3588H57.5836V7.95883H63.9423V14.3588H67.8649V19.644H63.9423V35.004Z" fill="black"/>
<path d="M80.1004 35.5408C73.8656 35.5408 69.4062 30.9988 69.4062 24.6401C69.4062 18.1988 73.7417 13.6982 79.9765 13.6982C86.4591 13.6982 90.5056 17.9511 90.5056 24.6814V26.2917L75.5172 26.3743C75.8888 29.0995 77.4165 30.3795 80.2243 30.3795C82.6191 30.3795 84.312 29.5124 84.7662 28.0259H90.5881C89.8449 32.6092 85.7572 35.5408 80.1004 35.5408ZM80.0178 18.8595C77.4991 18.8595 76.0952 19.9743 75.5998 22.4517H84.1881C84.1881 20.2634 82.5778 18.8595 80.0178 18.8595Z" fill="black"/>
<path d="M108.475 14.3588V20.3459H106.452C102.818 20.3459 100.63 21.9563 100.63 26.044V35.004H94.271V14.4001H100.258L100.588 17.4556C101.456 15.4324 103.272 14.0698 106.039 14.0698C106.782 14.0698 107.608 14.1524 108.475 14.3588Z" fill="black"/>
<path d="M120.645 3.87109L122.884 7.92501L127.371 7.19343L125.677 11.517L129.032 14.6586L124.68 15.9961L124.378 20.6453L120.645 17.9895L116.912 20.6453L116.609 15.9961L112.258 14.6586L115.613 11.517L113.919 7.19343L118.405 7.92501L120.645 3.87109Z" fill="#1CCD83"/>
</svg>
